<svg xmlns:dc="http://purl.org/dc/elements/1.1/" xmlns:cc="http://creativecommons.org/ns#" xmlns:rdf="http://www.w3.org/1999/02/22-rdf-syntax-ns#" xmlns:svg="http://www.w3.org/2000/svg" xmlns="http://www.w3.org/2000/svg" xmlns:sodipodi="http://sodipodi.sourceforge.net/DTD/sodipodi-0.dtd" xmlns:inkscape="http://www.inkscape.org/namespaces/inkscape" id="svg35679" version="1.1" inkscape:version="0.91 r13725" sodipodi:docname="LHC.svg" inkscape:export-filename="/home/rocha/Desktop/lhc.png" inkscape:export-xdpi="215.42" inkscape:export-ydpi="215.42" viewBox="110.52 246.88 410.18 198.01">
  <defs id="defs35681"/>
  <sodipodi:namedview id="base" pagecolor="#ffffff" bordercolor="#666666" borderopacity="1.0" inkscape:pageopacity="0.0" inkscape:pageshadow="2" inkscape:zoom="1.4083514" inkscape:cx="399.4198" inkscape:cy="628.51463" inkscape:document-units="px" inkscape:current-layer="layer1" showgrid="true" inkscape:window-width="1920" inkscape:window-height="1031" inkscape:window-x="0" inkscape:window-y="25" inkscape:window-maximized="1" showguides="false">
    <inkscape:grid type="xygrid" id="grid37305" empspacing="5" visible="true" enabled="true" snapvisiblegridlinesonly="true" spacingx="5px" spacingy="5px" dotted="false"/>
  </sodipodi:namedview>
  <metadata id="metadata35684">
    <rdf:RDF>
      <cc:Work rdf:about="">
        <dc:format>image/svg+xml</dc:format>
        <dc:type rdf:resource="http://purl.org/dc/dcmitype/StillImage"/>
        <dc:title/>
      </cc:Work>
    </rdf:RDF>
  </metadata>
  <g inkscape:groupmode="layer" id="layer2" inkscape:label="Layer"/>
  <g inkscape:label="Layer 1" inkscape:groupmode="layer" id="layer1">
    <g id="g70517" transform="matrix(3.030952,0,0,3.030952,-404.24579,-1184.3246)">
      <path sodipodi:nodetypes="ccccccccccccccccccccccccc" inkscape:connector-curvature="0" id="path70512" d="m 170,477.36218 5,0 0,-5 30,0 0,15 5,0 0,-15 35,0 0,10 5,0 0,-10 50,0 0,5 5,0 0,50 -5,0 0,5 -40,0 0,5 -25,0 0,-5 -60,0 0,-5 -5,0 z" style="fill:#ffffff;fill-opacity:1;stroke:#000000;stroke-width:1px;stroke-linecap:butt;stroke-linejoin:miter;stroke-opacity:1"/>
      <path inkscape:connector-curvature="0" id="path70451" d="m 175,477.36218 25,0 0,15 15,0 0,-15 25,0 0,10 15,0 0,-10 45,0 0,50 -40,0 0,5 -25,0 0,-5 -60,0 z" style="fill:#000000;fill-opacity:1;stroke:#000000;stroke-width:1px;stroke-linecap:butt;stroke-linejoin:miter;stroke-opacity:1"/>
      <path inkscape:connector-curvature="0" d="m 260,522.36218 35,0 0,-15 -15,0 0,10 -5,0 0,-30 5,0 0,10 15,0 0,-15 -35,0 0,40 m -40,-40 0,40 15,0 0,-20 5,0 0,25 15,0 0,-35 -20,0 0,-10 -15,0 0,40 0,0 m -40,-40 0,40.00001 35,0 0,-25.00001 -15,0 0,20 -5,0 0,-35 z" style="fill:#008000;fill-opacity:1;stroke:#008000;stroke-width:1px;stroke-linecap:butt;stroke-linejoin:miter;stroke-opacity:1" id="path37339-2"/>
    </g>
  </g>
</svg>